<?xml version="1.0" encoding="UTF-8"?>
<svg xmlns="http://www.w3.org/2000/svg" xmlns:xlink="http://www.w3.org/1999/xlink" width="31px" height="20px" viewBox="0 0 30 20" version="1.1">
<g id="surface1">
<path style=" stroke:none;fill-rule:nonzero;fill:rgb(100%,100%,100%);fill-opacity:1;" d="M 14.910156 0.175781 C 14.511719 0.851562 13.941406 1.882812 13.527344 2.683594 C 13.285156 3.148438 12.992188 3.828125 12.785156 4.398438 L 12.652344 4.777344 L 12.4375 4.589844 C 11.53125 3.792969 10.332031 3.0625 9.238281 2.640625 C 9.101562 2.585938 8.988281 2.546875 8.984375 2.554688 C 8.980469 2.554688 8.960938 2.714844 8.941406 2.90625 C 8.886719 3.382812 8.867188 4.644531 8.90625 5.109375 C 8.933594 5.441406 9.027344 6.089844 9.0625 6.1875 C 9.074219 6.21875 9.070312 6.226562 9.042969 6.210938 C 8.738281 6.074219 8.28125 5.886719 8.023438 5.789062 C 7.316406 5.515625 6 5.085938 5.1875 4.855469 L 5.015625 4.808594 L 4.996094 4.894531 C 4.949219 5.074219 4.917969 5.441406 4.933594 5.640625 C 4.964844 6.007812 5.09375 6.367188 5.277344 6.585938 C 5.351562 6.679688 5.402344 6.707031 5.710938 6.832031 C 6.363281 7.097656 6.972656 7.4375 7.246094 7.683594 C 7.304688 7.738281 7.363281 7.78125 7.367188 7.78125 C 7.386719 7.78125 7.234375 7.351562 7.125 7.101562 C 7.074219 6.984375 7.046875 6.890625 7.058594 6.890625 C 7.09375 6.890625 7.980469 7.234375 8.355469 7.398438 C 9.84375 8.027344 11.101562 8.6875 12.230469 9.433594 C 12.523438 9.625 12.617188 9.679688 12.632812 9.652344 C 12.644531 9.636719 12.671875 9.546875 12.6875 9.453125 C 12.789062 9 13.273438 7.832031 13.6875 7.042969 C 14.140625 6.179688 14.832031 4.933594 14.988281 4.699219 C 15.015625 4.660156 15.035156 4.683594 15.171875 4.914062 C 15.582031 5.625 16.53125 7.371094 16.679688 7.707031 C 16.921875 8.246094 17.253906 9.121094 17.367188 9.511719 C 17.394531 9.609375 17.421875 9.691406 17.425781 9.699219 C 17.429688 9.703125 17.582031 9.605469 17.769531 9.480469 C 18.988281 8.664062 20.355469 7.960938 21.847656 7.375 C 22.34375 7.183594 23.113281 6.910156 23.125 6.925781 C 23.128906 6.929688 23.070312 7.066406 22.988281 7.230469 C 22.785156 7.648438 22.570312 8.117188 22.585938 8.117188 C 22.589844 8.117188 22.636719 8.078125 22.695312 8.027344 C 23.007812 7.734375 23.617188 7.351562 24.363281 6.988281 C 24.757812 6.792969 24.816406 6.75 24.980469 6.503906 C 25.097656 6.324219 25.261719 5.96875 25.347656 5.707031 C 25.425781 5.457031 25.523438 5.003906 25.523438 4.878906 L 25.523438 4.808594 L 25.261719 4.878906 C 23.5 5.351562 21.8125 5.875 21.253906 6.121094 C 21.136719 6.175781 21.03125 6.214844 21.027344 6.207031 C 21.023438 6.203125 21.035156 6.125 21.054688 6.035156 C 21.226562 5.253906 21.257812 4.023438 21.140625 2.882812 C 21.125 2.757812 21.109375 2.628906 21.105469 2.601562 L 21.09375 2.546875 L 20.90625 2.617188 C 19.785156 3.039062 18.535156 3.800781 17.628906 4.609375 C 17.417969 4.796875 17.367188 4.828125 17.367188 4.777344 C 17.367188 4.671875 16.882812 3.449219 16.660156 2.996094 C 16.386719 2.429688 15.394531 0.617188 15.125 0.1875 L 15.007812 0.00390625 Z M 14.910156 0.175781 "/>
<path style=" stroke:none;fill-rule:nonzero;fill:rgb(100%,100%,100%);fill-opacity:1;" d="M 14.769531 6.753906 C 14.242188 7.660156 13.53125 9 13.335938 9.449219 C 12.367188 11.691406 12.097656 13.488281 12.53125 14.878906 C 12.609375 15.140625 12.835938 15.609375 12.976562 15.8125 C 13.414062 16.441406 14.0625 16.929688 14.808594 17.199219 L 15.027344 17.273438 L 15.195312 17.222656 C 15.460938 17.132812 15.878906 16.921875 16.160156 16.730469 C 17.851562 15.570312 18.183594 13.371094 17.117188 10.421875 C 16.9375 9.933594 16.730469 9.429688 16.578125 9.117188 C 16.285156 8.515625 15.144531 6.449219 15.035156 6.320312 C 15.03125 6.316406 14.914062 6.511719 14.769531 6.753906 Z M 14.769531 6.753906 "/>
<path style=" stroke:none;fill-rule:nonzero;fill:rgb(100%,100%,100%);fill-opacity:1;" d="M 0.0234375 6.742188 C 0.0234375 6.742188 0.101562 6.804688 0.195312 6.878906 C 0.859375 7.390625 1.4375 8.449219 1.757812 9.75 C 1.886719 10.269531 2.035156 10.664062 2.3125 11.222656 C 2.664062 11.921875 3.078125 12.503906 3.628906 13.0625 C 4.320312 13.765625 5.125 14.3125 6.0625 14.71875 C 6.773438 15.027344 7.589844 15.257812 8.253906 15.335938 L 8.386719 15.351562 L 8.113281 15.066406 C 7.375 14.304688 6.964844 13.265625 6.792969 11.71875 C 6.757812 11.402344 6.753906 10.121094 6.789062 9.789062 L 6.8125 9.574219 L 6.726562 9.464844 C 6.582031 9.28125 6.144531 8.863281 5.894531 8.667969 C 4.84375 7.863281 3.371094 7.273438 1.597656 6.941406 C 1.105469 6.847656 0.0234375 6.710938 0.0234375 6.742188 Z M 0.0234375 6.742188 "/>
<path style=" stroke:none;fill-rule:nonzero;fill:rgb(100%,100%,100%);fill-opacity:1;" d="M 29.449219 6.773438 C 27.847656 6.957031 26.261719 7.40625 25.117188 8 C 24.441406 8.355469 23.953125 8.710938 23.464844 9.214844 C 23.132812 9.554688 23.128906 9.558594 23.140625 9.648438 C 23.171875 9.828125 23.203125 10.417969 23.203125 10.757812 C 23.203125 11.691406 23.074219 12.589844 22.828125 13.351562 C 22.601562 14.066406 22.296875 14.59375 21.839844 15.066406 L 21.566406 15.351562 L 21.699219 15.335938 C 22.519531 15.238281 23.5625 14.910156 24.371094 14.496094 C 25.835938 13.742188 26.960938 12.609375 27.664062 11.179688 C 27.921875 10.652344 28.0625 10.273438 28.1875 9.796875 C 28.417969 8.894531 28.695312 8.210938 29.070312 7.640625 C 29.253906 7.359375 29.609375 6.972656 29.8125 6.835938 L 29.941406 6.75 L 29.789062 6.75 C 29.703125 6.753906 29.550781 6.765625 29.449219 6.773438 Z M 29.449219 6.773438 "/>
<path style=" stroke:none;fill-rule:nonzero;fill:rgb(100%,100%,100%);fill-opacity:1;" d="M 7.273438 8.722656 C 7.484375 9.023438 7.511719 9.304688 7.453125 10.507812 C 7.378906 11.972656 7.527344 12.972656 7.960938 14 C 8.679688 15.691406 9.816406 16.613281 11.382812 16.765625 C 11.667969 16.792969 12.078125 16.78125 12.351562 16.738281 C 12.589844 16.699219 12.867188 16.636719 12.863281 16.621094 C 12.863281 16.613281 12.804688 16.554688 12.730469 16.492188 C 12.464844 16.277344 12.164062 15.839844 11.988281 15.417969 C 11.644531 14.601562 11.515625 13.320312 11.660156 12.140625 C 11.710938 11.730469 11.710938 11.679688 11.640625 11.507812 C 11.449219 11.023438 10.925781 10.492188 10.148438 9.992188 C 9.550781 9.609375 8.472656 9.105469 7.585938 8.792969 C 7.269531 8.679688 7.238281 8.675781 7.273438 8.722656 Z M 7.273438 8.722656 "/>
<path style=" stroke:none;fill-rule:nonzero;fill:rgb(100%,100%,100%);fill-opacity:1;" d="M 22.253906 8.835938 C 20.714844 9.394531 19.515625 10.070312 18.839844 10.757812 C 18.601562 11.003906 18.460938 11.199219 18.347656 11.4375 C 18.25 11.652344 18.246094 11.707031 18.296875 12.097656 C 18.355469 12.589844 18.359375 13.738281 18.296875 14.15625 C 18.148438 15.1875 17.808594 15.949219 17.269531 16.460938 C 17.175781 16.550781 17.105469 16.625 17.113281 16.628906 C 17.144531 16.660156 17.605469 16.742188 17.898438 16.765625 C 18.996094 16.859375 20.03125 16.503906 20.832031 15.765625 C 21.542969 15.101562 22.152344 13.914062 22.390625 12.722656 C 22.527344 12.042969 22.542969 11.625 22.484375 9.832031 C 22.472656 9.523438 22.480469 9.320312 22.496094 9.207031 C 22.527344 9.035156 22.613281 8.8125 22.679688 8.738281 C 22.703125 8.710938 22.714844 8.6875 22.707031 8.683594 C 22.703125 8.679688 22.5 8.746094 22.253906 8.835938 Z M 22.253906 8.835938 "/>
<path style=" stroke:none;fill-rule:nonzero;fill:rgb(100%,100%,100%);fill-opacity:1;" d="M 1.980469 12.957031 C 1.476562 13.039062 0.976562 13.175781 0.640625 13.332031 C 0.453125 13.414062 0.203125 13.585938 0.109375 13.6875 L 0.0390625 13.761719 L 0.121094 13.847656 C 0.445312 14.199219 1.09375 14.585938 1.742188 14.824219 C 1.777344 14.839844 1.75 14.867188 1.601562 14.976562 C 1.5 15.050781 1.34375 15.171875 1.257812 15.246094 C 1.09375 15.382812 0.609375 15.890625 0.609375 15.925781 C 0.609375 15.9375 0.664062 15.9375 0.734375 15.929688 C 0.933594 15.898438 1.644531 15.914062 2.097656 15.957031 C 2.328125 15.980469 2.523438 16.003906 2.527344 16.007812 C 2.535156 16.011719 2.460938 16.101562 2.363281 16.203125 C 2.078125 16.511719 1.730469 16.941406 1.632812 17.117188 C 1.589844 17.191406 2.730469 17.441406 3.425781 17.507812 C 3.859375 17.550781 4.777344 17.527344 5.175781 17.460938 C 5.539062 17.402344 5.902344 17.320312 6.203125 17.21875 C 6.320312 17.179688 6.425781 17.148438 6.433594 17.148438 C 6.460938 17.148438 5.972656 17.722656 5.898438 17.78125 C 5.722656 17.917969 5.371094 18.0625 4.992188 18.15625 C 4.871094 18.183594 4.761719 18.21875 4.75 18.226562 C 4.703125 18.269531 5.550781 18.480469 6.128906 18.574219 C 6.71875 18.667969 7.085938 18.695312 7.828125 18.695312 C 8.898438 18.695312 9.785156 18.597656 10.976562 18.347656 C 11.171875 18.308594 11.335938 18.28125 11.34375 18.292969 C 11.351562 18.304688 11.414062 18.382812 11.480469 18.472656 C 11.761719 18.84375 12.285156 19.273438 12.722656 19.5 C 13.125 19.703125 13.609375 19.863281 14.097656 19.949219 C 14.394531 20 15.261719 20.007812 15.574219 19.960938 C 16.613281 19.808594 17.457031 19.417969 18.101562 18.800781 C 18.207031 18.699219 18.363281 18.53125 18.441406 18.425781 C 18.523438 18.320312 18.601562 18.234375 18.617188 18.238281 C 18.703125 18.269531 19.242188 18.378906 19.59375 18.441406 C 20.539062 18.609375 21.34375 18.683594 22.242188 18.683594 C 23.128906 18.683594 23.832031 18.613281 24.527344 18.457031 C 24.855469 18.382812 25.289062 18.25 25.289062 18.226562 C 25.289062 18.21875 25.226562 18.195312 25.148438 18.183594 C 24.816406 18.113281 24.371094 17.945312 24.179688 17.816406 C 24.082031 17.75 23.585938 17.179688 23.609375 17.15625 C 23.613281 17.152344 23.695312 17.171875 23.789062 17.207031 C 24.375 17.410156 24.957031 17.507812 25.714844 17.523438 C 26.355469 17.539062 26.679688 17.515625 27.257812 17.421875 C 27.621094 17.359375 28.351562 17.183594 28.390625 17.148438 C 28.429688 17.109375 28.050781 16.617188 27.683594 16.230469 C 27.574219 16.113281 27.488281 16.011719 27.496094 16.007812 C 27.5 16.003906 27.695312 15.980469 27.925781 15.957031 C 28.386719 15.914062 29.03125 15.902344 29.28125 15.929688 L 29.445312 15.949219 L 29.339844 15.820312 C 29.09375 15.519531 28.722656 15.175781 28.398438 14.953125 C 28.292969 14.882812 28.246094 14.839844 28.269531 14.832031 C 28.875 14.613281 29.398438 14.3125 29.820312 13.9375 L 30.007812 13.773438 L 29.875 13.648438 C 29.644531 13.433594 29.304688 13.265625 28.804688 13.121094 C 28.480469 13.03125 28.078125 12.953125 27.804688 12.929688 L 27.621094 12.914062 L 27.566406 13.019531 C 27.378906 13.390625 26.601562 14.21875 25.960938 14.730469 C 25.320312 15.238281 24.851562 15.492188 24.125 15.71875 C 23.421875 15.9375 22.457031 16.050781 21.980469 15.964844 C 21.824219 15.9375 21.816406 15.9375 21.789062 15.980469 C 21.738281 16.082031 21.449219 16.367188 21.234375 16.53125 C 20.453125 17.136719 19.578125 17.503906 18.515625 17.675781 C 18.113281 17.742188 17.328125 17.765625 17.175781 17.714844 L 17.066406 17.679688 L 17.003906 17.785156 C 16.859375 18.035156 16.433594 18.238281 15.835938 18.347656 C 15.53125 18.402344 15.050781 18.445312 14.917969 18.433594 C 14.867188 18.425781 14.699219 18.40625 14.542969 18.394531 C 13.78125 18.324219 13.070312 18.113281 12.796875 17.875 L 12.71875 17.808594 L 12.273438 17.804688 C 11.351562 17.796875 10.539062 17.609375 9.789062 17.234375 C 9.164062 16.921875 8.523438 16.414062 8.28125 16.042969 L 8.21875 15.941406 L 8.085938 15.960938 C 7.90625 15.988281 7.25 15.980469 6.984375 15.949219 C 6.863281 15.933594 6.628906 15.894531 6.46875 15.859375 C 5.207031 15.601562 4.355469 15.101562 3.265625 13.988281 C 2.832031 13.542969 2.601562 13.269531 2.480469 13.046875 C 2.410156 12.921875 2.410156 12.921875 2.300781 12.921875 C 2.242188 12.925781 2.097656 12.941406 1.980469 12.957031 Z M 1.980469 12.957031 "/>
</g>
</svg>
